<svg xmlns="http://www.w3.org/2000/svg" width="4230.558" height="4116.74" viewBox="0 0 4230.558 4116.74">
  <g id="Group_78" data-name="Group 78" transform="translate(304.301 1184.05)">
    <path id="Path_2" data-name="Path 2" d="M-2.62,1.713,284.424,0,434.867,351.706,284.424,691-2.935,692.761l150.4-339.249Z" transform="matrix(0.799, 0.602, -0.602, 0.799, 532.956, -68.283)" fill="rgba(255,255,255,0.35)"/>
    <path id="Path_3" data-name="Path 3" d="M-2.62,1.713,284.424,0,434.867,351.706,284.424,691-2.935,692.761l150.4-339.249Z" transform="matrix(0.799, 0.602, -0.602, 0.799, 808.956, 133.717)" fill="rgba(255,255,255,0.35)"/>
    <path id="Path_10" data-name="Path 10" d="M-2.62,1.713,284.424,0,434.867,351.706,284.424,691-2.935,692.761l150.4-339.249Z" transform="matrix(0.799, 0.602, -0.602, 0.799, 1084.957, 335.717)" fill="rgba(255,255,255,0.35)"/>
    <path id="Path_12" data-name="Path 12" d="M-2.62,1.713,284.424,0,434.867,351.706,284.424,691-2.935,692.761l150.4-339.249Z" transform="matrix(0.799, 0.602, -0.602, 0.799, 1360.957, 541.717)" fill="rgba(255,255,255,0.35)"/>
    <path id="Path_14" data-name="Path 14" d="M-2.62,1.713,284.424,0,434.867,351.706,284.424,691-2.935,692.761l150.4-339.249Z" transform="matrix(0.799, 0.602, -0.602, 0.799, 1636.957, 743.717)" fill="rgba(255,255,255,0.35)"/>
    <path id="Path_16" data-name="Path 16" d="M-2.62,1.713,284.424,0,434.867,351.706,284.424,691-2.935,692.761l150.4-339.249Z" transform="matrix(0.799, 0.602, -0.602, 0.799, 1912.957, 950.717)" fill="rgba(255,255,255,0.35)"/>
    <path id="Path_17" data-name="Path 17" d="M-2.62,1.713,284.424,0,434.867,351.706,284.424,691-2.935,692.761l150.4-339.249Z" transform="matrix(0.799, 0.602, -0.602, 0.799, 2188.957, 1152.717)" fill="rgba(255,255,255,0.35)"/>
    <path id="Path_18" data-name="Path 18" d="M-2.62,1.713,284.424,0,434.867,351.706,284.424,691-2.935,692.761l150.4-339.249Z" transform="matrix(0.799, 0.602, -0.602, 0.799, 2464.957, 1358.717)" fill="rgba(255,255,255,0.35)"/>
    <path id="Path_19" data-name="Path 19" d="M-2.62,1.713,284.424,0,434.867,351.706,284.424,691-2.935,692.761l150.4-339.249Z" transform="matrix(0.799, 0.602, -0.602, 0.799, 2740.957, 1560.717)" fill="rgba(255,255,255,0.35)"/>
    <path id="Path_20" data-name="Path 20" d="M-2.62,1.713,284.424,0,434.867,351.706,284.424,691-2.935,692.761l150.4-339.249Z" transform="matrix(0.799, 0.602, -0.602, 0.799, 114.957, 488.717)" fill="rgba(255,255,255,0.35)"/>
    <path id="Path_21" data-name="Path 21" d="M-2.62,1.713,284.424,0,434.867,351.706,284.424,691-2.935,692.761l150.4-339.249Z" transform="matrix(0.799, 0.602, -0.602, 0.799, 390.957, 690.717)" fill="rgba(255,255,255,0.35)"/>
    <path id="Path_22" data-name="Path 22" d="M-2.62,1.713,284.424,0,434.867,351.706,284.424,691-2.935,692.761l150.4-339.249Z" transform="matrix(0.799, 0.602, -0.602, 0.799, 666.957, 892.717)" fill="rgba(255,255,255,0.35)"/>
    <path id="Path_23" data-name="Path 23" d="M-2.62,1.713,284.424,0,434.867,351.706,284.424,691-2.935,692.761l150.4-339.249Z" transform="matrix(0.799, 0.602, -0.602, 0.799, 942.957, 1098.717)" fill="rgba(255,255,255,0.35)"/>
    <path id="Path_24" data-name="Path 24" d="M-2.62,1.713,284.424,0,434.867,351.706,284.424,691-2.935,692.761l150.4-339.249Z" transform="matrix(0.799, 0.602, -0.602, 0.799, 1218.957, 1300.717)" fill="rgba(255,255,255,0.35)"/>
    <path id="Path_25" data-name="Path 25" d="M-2.62,1.713,284.424,0,434.867,351.706,284.424,691-2.935,692.761l150.4-339.249Z" transform="matrix(0.799, 0.602, -0.602, 0.799, 1494.957, 1507.717)" fill="rgba(255,255,255,0.35)"/>
    <path id="Path_26" data-name="Path 26" d="M-2.62,1.713,284.424,0,434.867,351.706,284.424,691-2.935,692.761l150.4-339.249Z" transform="matrix(0.799, 0.602, -0.602, 0.799, 1770.957, 1709.717)" fill="rgba(255,255,255,0.35)"/>
    <path id="Path_27" data-name="Path 27" d="M-2.62,1.713,284.424,0,434.867,351.706,284.424,691-2.935,692.761l150.4-339.249Z" transform="matrix(0.799, 0.602, -0.602, 0.799, 2046.957, 1915.717)" fill="rgba(255,255,255,0.35)"/>
    <path id="Path_28" data-name="Path 28" d="M-2.62,1.713,284.424,0,434.867,351.706,284.424,691-2.935,692.761l150.4-339.249Z" transform="matrix(0.799, 0.602, -0.602, 0.799, 2322.957, 2117.717)" fill="rgba(255,255,255,0.35)"/>
    <path id="Path_31" data-name="Path 31" d="M-2.62,1.713,284.424,0,434.867,351.706,284.424,691-2.935,692.761l150.4-339.249Z" transform="matrix(0.799, 0.602, -0.602, 0.799, 1922.957, -778.283)" fill="rgba(255,255,255,0.35)"/>
    <path id="Path_32" data-name="Path 32" d="M-2.62,1.713,284.424,0,434.867,351.706,284.424,691-2.935,692.761l150.4-339.249Z" transform="matrix(0.799, 0.602, -0.602, 0.799, 2198.957, -572.283)" fill="rgba(255,255,255,0.35)"/>
    <path id="Path_33" data-name="Path 33" d="M-2.62,1.713,284.424,0,434.867,351.706,284.424,691-2.935,692.761l150.4-339.249Z" transform="matrix(0.799, 0.602, -0.602, 0.799, 2474.957, -370.283)" fill="rgba(255,255,255,0.35)"/>
    <path id="Path_34" data-name="Path 34" d="M-2.62,1.713,284.424,0,434.867,351.706,284.424,691-2.935,692.761l150.4-339.249Z" transform="matrix(0.799, 0.602, -0.602, 0.799, 2750.957, -163.283)" fill="rgba(255,255,255,0.35)"/>
    <path id="Path_35" data-name="Path 35" d="M-2.62,1.713,284.424,0,434.867,351.706,284.424,691-2.935,692.761l150.4-339.249Z" transform="matrix(0.799, 0.602, -0.602, 0.799, 3026.957, 38.717)" fill="rgba(255,255,255,0.35)"/>
    <path id="Path_36" data-name="Path 36" d="M-2.62,1.713,284.424,0,434.867,351.706,284.424,691-2.935,692.761l150.4-339.249Z" transform="matrix(0.799, 0.602, -0.602, 0.799, 3302.957, 244.717)" fill="rgba(255,255,255,0.35)"/>
    <path id="Path_37" data-name="Path 37" d="M-2.62,1.713,284.424,0,434.867,351.706,284.424,691-2.935,692.761l150.4-339.249Z" transform="matrix(0.799, 0.602, -0.602, 0.799, 3578.957, 446.717)" fill="rgba(255,255,255,0.35)"/>
    <path id="Path_38" data-name="Path 38" d="M-2.62,1.713,284.424,0,434.867,351.706,284.424,691-2.935,692.761l150.4-339.249Z" transform="matrix(0.799, 0.602, -0.602, 0.799, 952.957, -625.283)" fill="rgba(255,255,255,0.35)"/>
    <path id="Path_39" data-name="Path 39" d="M-2.62,1.713,284.424,0,434.867,351.706,284.424,691-2.935,692.761l150.4-339.249Z" transform="matrix(0.799, 0.602, -0.602, 0.799, 1228.957, -423.283)" fill="rgba(255,255,255,0.35)"/>
    <path id="Path_40" data-name="Path 40" d="M-2.62,1.713,284.424,0,434.867,351.706,284.424,691-2.935,692.761l150.4-339.249Z" transform="matrix(0.799, 0.602, -0.602, 0.799, 1504.957, -221.283)" fill="rgba(255,255,255,0.35)"/>
    <path id="Path_41" data-name="Path 41" d="M-2.62,1.713,284.424,0,434.867,351.706,284.424,691-2.935,692.761l150.4-339.249Z" transform="matrix(0.799, 0.602, -0.602, 0.799, 1780.957, -15.283)" fill="rgba(255,255,255,0.35)"/>
    <path id="Path_42" data-name="Path 42" d="M-2.62,1.713,284.424,0,434.867,351.706,284.424,691-2.935,692.761l150.4-339.249Z" transform="matrix(0.799, 0.602, -0.602, 0.799, 2056.957, 186.717)" fill="rgba(255,255,255,0.35)"/>
    <path id="Path_43" data-name="Path 43" d="M-2.62,1.713,284.424,0,434.867,351.706,284.424,691-2.935,692.761l150.4-339.249Z" transform="matrix(0.799, 0.602, -0.602, 0.799, 2332.957, 393.717)" fill="rgba(255,255,255,0.35)"/>
    <path id="Path_44" data-name="Path 44" d="M-2.62,1.713,284.424,0,434.867,351.706,284.424,691-2.935,692.761l150.4-339.249Z" transform="matrix(0.799, 0.602, -0.602, 0.799, 2608.957, 595.717)" fill="rgba(255,255,255,0.35)"/>
    <path id="Path_45" data-name="Path 45" d="M-2.62,1.713,284.424,0,434.867,351.706,284.424,691-2.935,692.761l150.4-339.249Z" transform="matrix(0.799, 0.602, -0.602, 0.799, 2884.957, 801.717)" fill="rgba(255,255,255,0.35)"/>
    <path id="Path_46" data-name="Path 46" d="M-2.62,1.713,284.424,0,434.867,351.706,284.424,691-2.935,692.761l150.4-339.249Z" transform="matrix(0.799, 0.602, -0.602, 0.799, 3160.957, 1003.717)" fill="rgba(255,255,255,0.35)"/>
    <path id="Path_29" data-name="Path 29" d="M-2.62,1.713,284.424,0,434.867,351.706,284.424,691-2.935,692.761l150.4-339.249Z" transform="matrix(0.799, 0.602, -0.602, 0.799, 1370.957, -1182.283)" fill="rgba(255,255,255,0.35)"/>
    <path id="Path_30" data-name="Path 30" d="M-2.62,1.713,284.424,0,434.867,351.706,284.424,691-2.935,692.761l150.4-339.249Z" transform="matrix(0.799, 0.602, -0.602, 0.799, 1646.957, -980.283)" fill="rgba(255,255,255,0.35)"/>
  </g>
</svg>
