<svg id="Component_2_1" data-name="Component 2 1" xmlns="http://www.w3.org/2000/svg" viewBox="0 0 108.43 33.95"><defs><style>.cls-1{fill:#5c38ed;}.cls-2{fill:none;stroke:#000;stroke-width:5px;}</style></defs><path d="M85.89,25.08a10.25,10.25,0,0,0-4-4,12.44,12.44,0,0,0-6.17-1.48A12.66,12.66,0,0,0,69.52,21a10.85,10.85,0,0,0-4.23,4,11.08,11.08,0,0,0-1.52,5.77,11.52,11.52,0,0,0,1.52,6,10.33,10.33,0,0,0,4.2,3.93,13.18,13.18,0,0,0,6.13,1.37,12.4,12.4,0,0,0,6.2-1.5,10.41,10.41,0,0,0,4.07-4.07,11.62,11.62,0,0,0,1.43-5.75v0A11.73,11.73,0,0,0,85.89,25.08Zm-5,9.2a6.15,6.15,0,0,1-2.15,2.42,5.67,5.67,0,0,1-3.22.9,5.51,5.51,0,0,1-3.1-.9,6.19,6.19,0,0,1-2.2-2.42,7.58,7.58,0,0,1,0-6.78,6.58,6.58,0,0,1,2.17-2.42,5.46,5.46,0,0,1,3.13-.93,5.75,5.75,0,0,1,3.22.9,6.18,6.18,0,0,1,2.15,2.43,7.42,7.42,0,0,1,.78,3.42A7.31,7.31,0,0,1,80.89,34.28Z" transform="translate(-9.57 -8.25)"/><path d="M91.93,30.85a11.09,11.09,0,0,1,1.53-5.77,10.82,10.82,0,0,1,4.22-4,12.7,12.7,0,0,1,6.16-1.48A12.44,12.44,0,0,1,110,21a10.25,10.25,0,0,1,4,4,11.73,11.73,0,0,1,1.43,5.77,11.74,11.74,0,0,1-1.43,5.78A10.41,10.41,0,0,1,110,40.7a12.41,12.41,0,0,1-6.21,1.5,13.16,13.16,0,0,1-6.12-1.37,10.33,10.33,0,0,1-4.2-3.93A11.52,11.52,0,0,1,91.93,30.85Zm5.66,0a7.2,7.2,0,0,0,.79,3.38,6.3,6.3,0,0,0,2.21,2.42,5.5,5.5,0,0,0,3.09.9,5.69,5.69,0,0,0,3.23-.9,6.15,6.15,0,0,0,2.15-2.42,7.31,7.31,0,0,0,.78-3.38,7.42,7.42,0,0,0-.78-3.42,6.18,6.18,0,0,0-2.15-2.43,5.76,5.76,0,0,0-3.23-.9,5.45,5.45,0,0,0-3.12.93,6.69,6.69,0,0,0-2.18,2.42A7.16,7.16,0,0,0,97.59,30.9Z" transform="translate(-9.57 -8.25)"/><circle id="Ellipse_2" data-name="Ellipse 2" class="cls-1" cx="104.93" cy="9.63" r="3.5"/><line id="Line_1" data-name="Line 1" class="cls-2" x1="77.17" y1="22.63" x2="82.93" y2="22.63"/><path d="M56.3,31.48h0v-.63C56.32,31.06,56.32,31.27,56.3,31.48Z" transform="translate(-9.57 -8.25)"/><path d="M54.66,8.25V20.94a12.42,12.42,0,0,0-6-1.38A12.67,12.67,0,0,0,42.52,21a10.91,10.91,0,0,0-4.23,4,11.18,11.18,0,0,0-1.52,5.77,11.61,11.61,0,0,0,1.52,6,10.46,10.46,0,0,0,4.2,3.93,13.22,13.22,0,0,0,6.14,1.37,12.39,12.39,0,0,0,6.19-1.5,10.37,10.37,0,0,0,4.08-4.07,11.43,11.43,0,0,0,1.4-5.15,4.43,4.43,0,0,0,0-.63V8.25ZM51.74,36.7a6,6,0,0,1-6.33,0,6.33,6.33,0,0,1-2.19-2.42,7.5,7.5,0,0,1,0-6.78,6.6,6.6,0,0,1,2.18-2.42,5.43,5.43,0,0,1,3.12-.93,5.64,5.64,0,0,1,3.22.91,6.11,6.11,0,0,1,2.16,2.42,7.54,7.54,0,0,1,.76,3.42,7.43,7.43,0,0,1-.76,3.38A6.17,6.17,0,0,1,51.74,36.7Z" transform="translate(-9.57 -8.25)"/><path d="M34.38,36v5.59h-23c2.06-2.09,4.06-4.14,6-6.09,0-.06.12-.13.22-.24l.7-.71c.68-.72,1.57-1.65,2.44-2.62l.71-.81c.32-.37.71-.84,1.13-1.36a30,30,0,0,0,3.62-5.38,11.56,11.56,0,0,0,.68-1.57,1.85,1.85,0,0,0,.09-.23,7.24,7.24,0,0,0,.44-1.75s0-.07,0-.09c0-.3,0-.61,0-.92a7.42,7.42,0,0,0-.09-1.23,7.64,7.64,0,0,0-.68-2.19,6.44,6.44,0,0,0-1.28-1.72,5.73,5.73,0,0,0-.87-.69A5.62,5.62,0,0,0,21.32,13,5.43,5.43,0,0,0,18.2,14,6.72,6.72,0,0,0,16,16.39a7.09,7.09,0,0,0-.8,3.38H9.57v0A11.1,11.1,0,0,1,11.1,14a10.82,10.82,0,0,1,4.22-4.05,12.65,12.65,0,0,1,6.15-1.46,12.44,12.44,0,0,1,6.18,1.46A10.31,10.31,0,0,1,31.7,14a11.73,11.73,0,0,1,1.42,5.78,11.76,11.76,0,0,1-1.42,5.78,10,10,0,0,1-.55.88c-.13.25-.29.55-.49.87a49.83,49.83,0,0,1-3.79,5.09c-1,1.17-1.91,2.4-2.89,3.6Z" transform="translate(-9.57 -8.25)"/></svg>