<svg id="Component_2_1" data-name="Component 2 1" xmlns="http://www.w3.org/2000/svg" viewBox="0 0 108.43 33.95"><defs><style>.cls-1{fill:#fff;}.cls-2{fill:#5c38ed;}</style></defs><path class="cls-1" d="M76.32,16.83a10.26,10.26,0,0,0-4-4,12.39,12.39,0,0,0-6.17-1.48,12.59,12.59,0,0,0-6.2,1.4,10.85,10.85,0,0,0-4.23,4,11.12,11.12,0,0,0-1.52,5.77,11.56,11.56,0,0,0,1.52,6,10.39,10.39,0,0,0,4.2,3.93,13.28,13.28,0,0,0,6.13,1.37,12.42,12.42,0,0,0,6.2-1.5,10.48,10.48,0,0,0,4.07-4.07,11.55,11.55,0,0,0,1.43-5.75h0A11.7,11.7,0,0,0,76.32,16.83Zm-5,9.2a6.19,6.19,0,0,1-2.15,2.42,5.65,5.65,0,0,1-3.22.9,5.5,5.5,0,0,1-3.1-.9A6.11,6.11,0,0,1,60.65,26a7.56,7.56,0,0,1,0-6.78,6.57,6.57,0,0,1,2.17-2.42A5.45,5.45,0,0,1,66,15.9a5.73,5.73,0,0,1,3.22.9,6.15,6.15,0,0,1,2.15,2.43,7.8,7.8,0,0,1,0,6.8Z" transform="translate(0 0)"/><path class="cls-1" d="M82.36,22.6a11,11,0,0,1,1.53-5.77,10.82,10.82,0,0,1,4.22-4,12.71,12.71,0,0,1,6.16-1.48,12.44,12.44,0,0,1,6.16,1.4,10.26,10.26,0,0,1,4,4,11.75,11.75,0,0,1,1.43,5.77,11.66,11.66,0,0,1-1.43,5.78,10.44,10.44,0,0,1-4,4.15A12.43,12.43,0,0,1,94.22,34a13.24,13.24,0,0,1-6.12-1.37,10.39,10.39,0,0,1-4.2-3.93A11.56,11.56,0,0,1,82.36,22.6Zm5.66,0A7.12,7.12,0,0,0,88.81,26,6.28,6.28,0,0,0,91,28.4a5.55,5.55,0,0,0,3.09.9,5.68,5.68,0,0,0,3.23-.9A6.19,6.19,0,0,0,99.49,26a7.8,7.8,0,0,0,0-6.8,6.15,6.15,0,0,0-2.15-2.43,5.76,5.76,0,0,0-3.23-.9,5.42,5.42,0,0,0-3.12.93,6.76,6.76,0,0,0-2.18,2.42A7.14,7.14,0,0,0,88,22.65Z" transform="translate(0 0)"/><circle id="Ellipse_2" data-name="Ellipse 2" class="cls-2" cx="104.93" cy="9.63" r="3.5"/><line id="Line_1" data-name="Line 1" class="cls-1" x1="77.17" y1="22.63" x2="82.93" y2="22.63"/><path d="M46.73,23.23h0V22.6A3.31,3.31,0,0,1,46.73,23.23Z" transform="translate(0 0)"/><path class="cls-1" d="M45.09,0V12.69a12.39,12.39,0,0,0-6-1.38A12.6,12.6,0,0,0,33,12.75a10.92,10.92,0,0,0-4.23,4,11.12,11.12,0,0,0-1.52,5.77,11.58,11.58,0,0,0,1.52,6,10.45,10.45,0,0,0,4.2,3.93,13.32,13.32,0,0,0,6.14,1.37,12.38,12.38,0,0,0,6.19-1.5,10.37,10.37,0,0,0,4.08-4.07,11.34,11.34,0,0,0,1.4-5.15q0-.32,0-.63V0ZM42.17,28.45a6,6,0,0,1-6.33,0A6.38,6.38,0,0,1,33.65,26a7.5,7.5,0,0,1,0-6.78,6.51,6.51,0,0,1,2.18-2.42A5.42,5.42,0,0,1,39,15.9a5.66,5.66,0,0,1,3.22.91,6.15,6.15,0,0,1,2.16,2.42,7.5,7.5,0,0,1,.76,3.42A7.34,7.34,0,0,1,44.33,26,6.22,6.22,0,0,1,42.17,28.45Z" transform="translate(0 0)"/><path class="cls-1" d="M24.81,27.75v5.59h-23c2.06-2.09,4.06-4.14,6-6.09,0-.06.12-.13.22-.24l.7-.71c.68-.72,1.57-1.65,2.44-2.62l.71-.81c.32-.37.71-.84,1.13-1.36a30,30,0,0,0,3.62-5.38,11.45,11.45,0,0,0,.68-1.57.92.92,0,0,0,.09-.23,7,7,0,0,0,.44-1.75v-1a8.48,8.48,0,0,0-.09-1.23,7.64,7.64,0,0,0-.68-2.19,6.54,6.54,0,0,0-1.28-1.72,5.73,5.73,0,0,0-.87-.69,5.61,5.61,0,0,0-3.17-1,5.37,5.37,0,0,0-3.12,1,6.73,6.73,0,0,0-2.2,2.39,7.08,7.08,0,0,0-.8,3.38H0A11,11,0,0,1,1.53,5.75a10.88,10.88,0,0,1,4.22-4A12.65,12.65,0,0,1,11.9.24,12.44,12.44,0,0,1,18.08,1.7a10.25,10.25,0,0,1,4.05,4.05,11.76,11.76,0,0,1,1.42,5.78,11.76,11.76,0,0,1-1.42,5.78,10,10,0,0,1-.55.88c-.13.25-.29.55-.49.87a48.34,48.34,0,0,1-3.79,5.09c-1,1.17-1.91,2.4-2.89,3.6Z" transform="translate(0 0)"/></svg>